<svg width="164" height="130" viewBox="0 0 164 130" xmlns="http://www.w3.org/2000/svg"><title>Imported Layers</title><desc>Created with Sketch.</desc><g fill="none" fill-rule="evenodd"><path d="M163.87 20.75L82.38.57c-.025-.006-.05-.006-.072 0L.813 20.752c-.066.016-.112.075-.112.144v88.754c0 .068.05.127.12.143l81.5 20.18c.01.002.023.003.035.003.01 0 .024 0 .035-.003l81.49-20.18c.067-.015.113-.074.113-.143V20.895c0-.07-.048-.128-.114-.145" fill="#fff"/><path d="M91.045 88.66V43.798c0-.068.046-.127.112-.144l13.342-3.267c.04-.01.09 0 .12.03.03.026.05.07.05.115v1.408c0 .068-.048.128-.11.143L92.7 44.987v16.516l8.856-.385c.037 0 .078.013.108.04.03.028.046.067.046.107v1.37c0 .08-.063.147-.14.15l-8.87.383V87.47l11.87 2.912c.063.015.11.074.11.143v1.41c0 .046-.02.088-.057.116-.026.03-.056.04-.09.04h-.036l-13.343-3.28c-.066-.014-.112-.073-.112-.142zm48.77-55.204l7.205-1.763v70.703c0 .068.046.127.112.143l1.363.33h.034c.03 0 .06-.01.09-.03.03-.03.05-.07.05-.12V31.28l7.27-1.78c.064-.016.11-.075.11-.144V27.95c0-.044-.02-.087-.057-.115-.035-.03-.08-.04-.126-.03l-16.133 3.95c-.066.017-.11.076-.11.145v1.406c0 .047.02.09.053.118.036.026.08.037.127.026zM24.94 31.886l-1.364-.335c-.045-.01-.09 0-.125.03-.03.03-.05.07-.05.12v31.64l-13.11-.19V28.41c0-.068-.042-.128-.11-.143l-1.37-.337c-.043-.01-.09 0-.124.03-.035.025-.055.067-.055.113v76.302c0 .046.02.09.058.117.027.02.06.03.092.03.01 0 .02 0 .03-.002l1.37-.336c.068-.017.11-.076.11-.145V64.81L23.4 65v35.75c0 .047.02.09.056.116.036.03.08.04.127.03l1.366-.334c.06-.016.11-.075.11-.144V32.03c0-.07-.05-.128-.11-.145zM79.578 45.29l-1.363-.332c-.046-.012-.092-.002-.127.027-.035.028-.056.07-.056.117v36.89L64.937 41.77c-.016-.05-.056-.087-.105-.1l-1.39-.34c-.043-.012-.09 0-.125.028-.035.027-.056.07-.056.116v49.49c0 .046.02.088.06.116.03.02.06.03.09.03.02 0 .03 0 .04-.002l1.37-.337c.066-.01.112-.07.112-.14V46.87L78 87.393c.025.074.104.12.176.098l1.4-.34c.067-.01.113-.07.113-.14V45.44c0-.07-.05-.13-.12-.144zM47.966 94.86l-7.41 1.804c-.012.003-.024.004-.036.004-.038 0-.076-.015-.104-.044l-4.452-4.563c-.027-.02-.04-.06-.04-.1l-.004-51.61c0-.04.016-.07.043-.1l4.43-4.5c.037-.038.09-.05.142-.04l7.39 1.867c.033.01.064.03.084.06l4.31 6.243c.02.02.02.05.02.08V88.5c0 .03-.01.06-.027.085l-4.27 6.22c-.02.03-.052.05-.087.06zm2.728-6.842V44.426l-3.728-5.387-6-1.51h-.002l-3.384 3.43v50.37l3.413 3.5 6.014-1.463 3.682-5.363zm67.428-50.924l-4.14 5.988c-.018.025-.026.054-.026.084v15.347c0 .03.007.058.024.082l4.32 6.54c.03.042.076.067.124.067h6.62l3.68 5.53.003 21.264-3.395 3.482-6.072-1.492-3.647-5.312v-8.288c0-.074-.054-.137-.127-.146l-1.365-.182c-.04-.004-.08.008-.11.035-.03.028-.05.07-.05.11v8.943c0 .03.01.058.03.082l4.276 6.227c.02.03.05.05.087.06l7.41 1.805c.01.003.025.004.037.004.04 0 .075-.015.103-.045l4.453-4.57c.027-.03.04-.07.04-.11V70.27c0-.03-.01-.06-.023-.083l-4.4-6.588c-.03-.04-.076-.066-.126-.066h-6.6l-3.623-5.483V43.64l3.546-5.13 6.385-1.56 3.18 3.233v6.826c0 .04.02.08.05.11s.077.04.12.03l1.365-.22c.073-.01.125-.07.125-.15v-7.23c0-.04-.015-.077-.04-.106l-4.22-4.287c-.034-.038-.09-.053-.14-.04l-7.78 1.902c-.03.01-.063.03-.083.06zm-73.7-12.02c.948.007 1.5.183 1.697.68.16.42-.09.902-.59 1.103-.64.25-1.65-.013-1.71-.023-.12-.034-.28.032-.31.2l-.117.743c-.026.19.042.22.164.273.267.11 1.215.4 2.44-.087 1.372-.545 1.872-1.814 1.476-2.82-.494-1.258-1.81-1.392-2.9-1.398-.915-.01-1.4-.178-1.58-.637-.12-.312.033-.804.59-1.022.533-.213 1.464-.02 1.562 0 .146.03.262-.104.293-.253l.15-.702c.03-.12-.066-.27-.186-.29-.25-.07-1.21-.27-2.203.12-1.545.617-1.79 1.877-1.45 2.74.455 1.156 1.6 1.38 2.662 1.387zm9.987-7.738c-.04-.077-.12-.13-.23-.096l-.16.05c-.09.026-.13.082-.14.15l-.78 5.408-.03.01-3.63-4.074c-.05-.052-.12-.075-.2-.05l-.16.05c-.11.032-.15.12-.14.204l.84 7.11c.02.147.123.213.254.174l.91-.272c.09-.028.145-.132.133-.206l-.563-3.982.03-.01 2.96 3.412c.05.05.12.086.21.058l.18-.054c.09-.028.136-.096.14-.162l.564-4.477s.02-.01.03-.01l1.736 3.62c.04.06.145.12.235.09l.91-.278c.13-.04.185-.154.114-.285l-3.216-6.395zm4.54 6.05l1.77-7.573c.01-.07.06-.13.15-.15l.1-.02c.1-.022.15.02.2.076l4.57 6.26c.09.12.03.27-.12.3l-.89.18c-.16.033-.24-.015-.34-.144l-.73-1.007-3.07.63-.274 1.21c-.02.11-.09.234-.256.27l-.89.18c-.15.033-.26-.084-.23-.23zm1.92-2.677l2.06-.43-1.49-2.05h-.03l-.55 2.47zm6.99 1.26l3.8-.5c.11-.02.18-.12.17-.23l-.11-.854c-.02-.104-.11-.187-.23-.17l-2.65.347-.766-5.836c-.014-.104-.12-.185-.223-.17l-.956.126c-.11.017-.182.12-.17.226l.907 6.887c.015.106.11.187.224.173zm6.15-.72l3.83-.25c.115-.01.19-.11.185-.215l-.06-.86c-.007-.103-.096-.192-.212-.184l-2.663.184-.4-5.877c0-.105-.1-.192-.21-.185l-.96.066c-.11 0-.19.1-.18.21l.476 6.93c.008.1.097.19.213.18zm12.52-.15c1.52.057 2.62-.585 2.62-.585.045-.03.09-.08.09-.165l.102-2.69c.004-.1-.077-.2-.18-.203l-2.01-.075c-.116-.004-.2.077-.207.19l-.03.83c-.005.107.075.194.19.198l.837.03-.03.892c-.213.078-.67.24-1.257.217-1.32-.05-2.313-1.19-2.262-2.496.05-1.312 1.13-2.396 2.436-2.346.575.02 1.123.25 1.56.67.09.083.183.09.27.006l.675-.657c.09-.08.08-.208 0-.295-.688-.636-1.574-1.038-2.516-1.073-2.084-.08-3.82 1.547-3.9 3.647-.08 2.1 1.53 3.82 3.615 3.9zm5.136.02l.82-6.9c.015-.1.11-.186.222-.173l2.97.355c1.25.15 2.15 1.27 2 2.512-.113.957-.84 1.664-1.79 1.92L97 21.65c.057.145-.036.304-.212.28l-1.09-.13c-.09-.01-.138-.067-.155-.112L94.5 18.77l-1.153-.138-.318 2.658c-.02.104-.12.187-.23.175l-.958-.116c-.116-.02-.188-.12-.175-.22zm1.81-3.61l1.695.204c.55.066 1.087-.356 1.156-.94.07-.553-.354-1.068-.904-1.134l-1.695-.2-.245 2.076zm6.173 1.14c.43-2.056 2.403-3.37 4.453-2.94 2.05.43 3.344 2.427 2.915 4.483-.428 2.06-2.41 3.35-4.458 2.92-2.05-.43-3.34-2.404-2.912-4.46zm3.19 3.125c1.292.27 2.577-.566 2.85-1.863.267-1.292-.574-2.594-1.865-2.865-1.294-.27-2.575.587-2.845 1.882s.568 2.572 1.86 2.843zm8.284 3.54c1.582.483 3.17-.38 3.635-1.908l1.27-4.18c.03-.1-.03-.22-.133-.25l-.95-.29c-.11-.035-.22.03-.25.13l-1.253 4.12c-.26.844-1.056 1.335-1.928 1.068-.87-.267-1.25-1.118-.99-1.97l1.25-4.11c.032-.1-.02-.215-.13-.248l-.954-.293c-.1-.03-.216.033-.246.132l-1.274 4.18c-.467 1.524.37 3.13 1.943 3.61zm5.42 1.48l2.54-6.47c.036-.1.15-.156.256-.114l2.29.903c1.2.47 1.8 1.837 1.34 3.02-.475 1.21-1.845 1.81-3.035 1.34l-1.215-.48-.9 2.298c-.04.1-.16.15-.26.116l-.895-.353c-.107-.043-.15-.16-.113-.26zm2.637-2.99l1.13.445c.548.216 1.178-.043 1.4-.62.216-.54-.083-1.13-.63-1.344l-1.13-.446-.77 1.964zM56.39 106.45l-4.353-1.41c-.11-.035-.22.03-.25.13l-.265.82c-.034.1.017.214.127.25l1.52.494-1.81 5.605c-.03.1.03.21.13.25l.93.3c.1.03.22-.03.25-.13l1.806-5.61 1.523.496c.11.035.22-.03.25-.128l.266-.82c.03-.1-.02-.218-.13-.254zm7.894 4.286c-.217.94-1.014 1.564-1.98 1.72l.8 2.916c.042.15-.068.295-.24.256l-1.07-.248c-.093-.02-.13-.085-.144-.13l-.737-3.02-1.13-.26-.598 2.606c-.024.1-.137.174-.238.15l-.94-.215c-.11-.02-.17-.13-.148-.23l1.54-6.77c.022-.103.123-.18.236-.15l2.916.67c1.222.28 1.997 1.49 1.72 2.71zm-2.114-1.51l-1.662-.38-.463 2.034 1.66.38c.542.128 1.118-.235 1.25-.81.123-.54-.243-1.097-.783-1.222zm8.645.237l2.3 7.414c.046.144-.054.27-.21.25l-.903-.116c-.155-.02-.22-.09-.274-.24l-.36-1.19-3.106-.4-.65 1.06c-.057.1-.163.19-.33.17l-.902-.12c-.154-.02-.22-.164-.14-.292l4.12-6.59c.04-.057.1-.103.193-.092l.104.016c.1.01.135.07.16.134zm.188 4.89l-.746-2.423-.033-.004-1.31 2.16 2.087.267zm7.027-4.275l-.973-.05c-.104-.006-.203.083-.21.19l-.356 6.934c0 .105.09.204.19.21l.98.05c.102.005.2-.084.207-.19l.358-6.934c.005-.106-.083-.205-.19-.21zm5.354 7.456c.116-.004.196-.1.193-.205l-.13-4.52h.01l4.513 4.69.25-.008c.107-.005.198-.09.194-.196l-.203-7.065c0-.105-.1-.196-.2-.192l-.962.026c-.114.005-.197.1-.192.207l.127 4.336h-.01l-4.49-4.51-.26.01c-.11 0-.2.09-.196.19l.205 7.065c.003.104.1.196.205.193l.95-.028zm9.746-7.99l-.967.11c-.105.01-.187.116-.175.22l.776 6.9c.01.105.116.187.22.176l.967-.11c.11-.013.19-.118.18-.22l-.77-6.9c-.013-.106-.12-.188-.22-.178zm9.836-1.678l-.95.188c-.11.025-.175.13-.155.236l.84 4.253h-.01l-5.17-3.704-.25.05c-.103.02-.18.12-.16.22l1.368 6.93c.025.103.135.18.24.16l.935-.186c.113-.02.176-.13.156-.234l-.874-4.425h.01l5.226 3.875.247-.05c.1-.02.176-.12.155-.22l-1.366-6.93c-.02-.103-.13-.178-.233-.158zm9.09 5.18c1.45-.45 2.28-1.422 2.28-1.422.03-.04.052-.103.03-.183l-.795-2.56c-.03-.1-.13-.164-.23-.132l-1.92.596c-.11.034-.166.14-.13.25l.24.79c.03.1.138.157.25.123l.796-.247.266.852c-.177.143-.555.446-1.114.62-1.26.39-2.573-.354-2.957-1.6-.39-1.252.27-2.63 1.52-3.02.55-.17 1.14-.133 1.69.114.114.05.203.024.26-.08l.418-.845c.056-.106.01-.223-.096-.28-.86-.37-1.83-.453-2.73-.174-1.986.618-3.09 2.73-2.47 4.734.62 2.005 2.708 3.093 4.696 2.475z" fill="#000"/></g></svg>