<svg width="133" height="104" viewBox="0 0 133 104" xmlns="http://www.w3.org/2000/svg"><title>Imported Layers</title><desc>Created with Sketch.</desc><path d="M73.35 70.637l10.755 2.62c.01.002.02.002.03.002.025 0 .05-.01.072-.03.03-.02.046-.06.046-.1v-1.12c0-.057-.038-.1-.09-.117l-9.567-2.33v-19.44l7.15-.307c.062-.01.113-.06.113-.12v-1.1c0-.036-.02-.067-.04-.09-.03-.02-.06-.03-.09-.03l-7.14.307V35.58l9.56-2.323c.052-.01.09-.06.09-.11v-1.13c0-.037-.017-.07-.046-.094-.027-.023-.066-.032-.1-.022l-10.75 2.62c-.055.012-.09.06-.09.114v35.89c0 .055.035.103.09.116m39.22-44.28l5.807-1.41v56.56c0 .054.033.103.09.115l1.1.266c.004.01.013.01.02.01.03 0 .056-.01.077-.02.03-.02.044-.053.044-.09V24.63l5.866-1.425c.05-.017.09-.064.09-.12v-1.12c0-.04-.02-.072-.05-.094-.027-.02-.063-.03-.1-.02L112.5 25.01c-.052.012-.09.06-.09.114v1.12c0 .038.018.07.046.095.026.02.062.03.1.02M19.974 25.1l-1.1-.27c-.037-.01-.074 0-.1.024-.03.023-.048.057-.048.094v25.31l-10.57-.155V22.317c0-.054-.04-.102-.09-.115l-1.104-.267c-.036-.01-.074 0-.1.02-.03.024-.047.058-.047.094v61.04c0 .03.017.07.046.09.02.01.048.02.075.02.01 0 .02 0 .027-.007l1.1-.27c.056-.013.093-.06.093-.114V51.43l10.57.154v28.6c0 .04.015.073.044.094.027.023.064.03.1.023l1.1-.27c.05-.01.09-.06.09-.112V25.21c0-.054-.04-.1-.09-.114M64.01 35.82l-1.1-.267c-.035-.01-.073 0-.1.02-.03.022-.046.056-.046.093v29.51l-10.55-32.17c-.012-.04-.044-.07-.084-.08l-1.12-.272c-.036-.01-.073 0-.1.02-.03.02-.047.052-.047.09v39.59c0 .037.017.07.046.094.02.015.04.023.07.023h.03l1.1-.27c.05-.01.09-.06.09-.11V37.08l10.54 32.43c.02.057.08.094.14.078l1.13-.277c.05-.01.09-.05.09-.11V35.94c0-.053-.04-.1-.09-.114M38.6 75.434l3.447-4.98c.016-.02.024-.044.024-.068V34.753c0-.024 0-.047-.02-.067l-3.48-4.994c-.01-.024-.04-.04-.07-.047l-5.95-1.495c-.04-.01-.08.006-.11.036l-3.57 3.605c-.022.03-.033.06-.033.09v41.29c0 .03.013.06.035.08l3.588 3.65c.024.028.054.04.086.04.01 0 .02 0 .027-.002l5.974-1.444c.024-.006.05-.023.07-.047zm-.84-1.135l-4.845 1.17-2.757-2.81-.002-40.3 2.73-2.75h.002l4.836 1.21 3.004 4.3V70l-2.97 4.29zm57.32-45.04l-3.336 4.79c-.013.02-.02.04-.02.07V46.4c0 .024.006.047.02.066l3.482 5.23c.022.033.06.053.1.053h5.335l2.97 4.42v17.01L100.9 75.96 96 74.78l-2.94-4.25V63.9c0-.06-.042-.11-.1-.117l-1.1-.145c-.035-.002-.07.006-.094.028-.025.023-.04.055-.04.09v7.152c0 .024.008.047.02.067l3.445 4.98c.02.025.05.042.07.05l5.98 1.443.03.003c.03 0 .06-.01.087-.03l3.584-3.65c.02-.02.034-.05.034-.08V55.82c0-.026-.005-.048-.02-.067l-3.546-5.27c-.022-.034-.06-.054-.1-.054h-5.32l-2.92-4.39V34.51l2.86-4.102 5.15-1.25 2.56 2.587v5.46c0 .037.016.07.04.09.03.024.06.034.097.03l1.1-.176c.06-.01.1-.06.1-.12v-5.79c0-.03-.01-.06-.033-.085l-3.4-3.43c-.026-.03-.07-.04-.11-.03l-6.27 1.52c-.03.01-.055.025-.07.05m36.88-13.077L66.272.05c-.02-.006-.037-.006-.056 0L.526 16.194c-.05.013-.09.06-.09.115v71c0 .05.04.1.09.11l65.69 16.14h.028c.01 0 .02 0 .03-.005l65.69-16.144c.05-.014.088-.06.088-.115v-71c0-.054-.037-.1-.09-.114zM1.812 17.29l64.43-15.834 64.43 15.835v69.04l-64.43 15.84-64.43-15.84V17.29zm33.866 2.362c.76.006 1.21.147 1.36.545.135.335-.065.72-.474.882-.51.2-1.327-.01-1.376-.02-.092-.03-.225.02-.244.16l-.09.59c-.02.15.04.17.14.22.214.08.98.32 1.966-.07 1.106-.44 1.51-1.45 1.19-2.26-.4-1.01-1.46-1.12-2.34-1.12-.738-.01-1.127-.147-1.273-.51-.1-.25.024-.646.47-.82.433-.17 1.183-.016 1.26 0 .12.024.214-.08.24-.2l.12-.566c.026-.1-.05-.223-.147-.24-.204-.054-.977-.22-1.776.096-1.246.49-1.443 1.5-1.17 2.194.37.92 1.29 1.1 2.147 1.105m8.05-6.19c-.027-.06-.093-.103-.182-.075l-.13.04c-.074.02-.105.066-.114.12l-.628 4.327-.027.007-2.925-3.26c-.04-.04-.1-.06-.16-.04l-.13.04c-.09.027-.12.097-.11.164L40 20.47c.02.117.106.17.21.14l.728-.22c.072-.02.117-.105.11-.164l-.457-3.19.03-.007L43 19.76c.04.04.093.07.165.047l.144-.043c.07-.023.11-.078.11-.132l.45-3.58.02-.01 1.4 2.904c.033.05.117.095.19.073l.735-.22c.104-.04.147-.13.09-.23l-2.59-5.12m3.85 5.03l.72-.15c.134-.022.19-.12.207-.21l.22-.97 2.47-.504.59.806c.08.102.15.14.27.114l.72-.144c.126-.027.17-.148.098-.244l-3.69-5.015c-.036-.044-.077-.08-.16-.06l-.082.016c-.074.015-.107.065-.12.12L47.38 18.3c-.028.117.06.21.185.186zm1.8-4.3l.025-.008 1.2 1.64-1.662.34.436-1.976zm5.2 2.985l3.06-.4c.093-.014.15-.097.138-.18l-.09-.683c-.01-.084-.09-.15-.18-.138l-2.134.28-.614-4.67c-.01-.084-.097-.15-.18-.14l-.77.1c-.09.015-.15.098-.137.18l.73 5.51c.01.085.085.15.18.14m4.956-.57l3.082-.21c.09-.01.15-.09.15-.17l-.05-.69c-.008-.084-.08-.155-.17-.15l-2.15.15-.326-4.704c-.006-.083-.086-.154-.17-.15l-.776.055c-.09.008-.156.09-.15.17l.384 5.55c.007.085.08.156.17.15m10.1-.12c1.222.043 2.112-.47 2.112-.47.035-.024.07-.064.072-.13l.08-2.15c.004-.084-.06-.163-.146-.166l-1.62-.06c-.094-.007-.164.06-.168.15l-.027.67c-.003.08.062.15.155.154l.674.023-.028.71c-.17.06-.54.19-1.013.173-1.062-.04-1.865-.953-1.824-1.994.04-1.05.91-1.914 1.96-1.875.468.02.91.205 1.26.537.073.07.15.073.22.01l.54-.53c.07-.062.066-.163 0-.233-.555-.51-1.27-.83-2.03-.86-1.68-.06-3.08 1.24-3.14 2.92-.066 1.68 1.233 3.056 2.91 3.12m4.284.19l.77.092c.083.01.17-.06.18-.14l.252-2.13.93.11.85 2.342c.012.034.05.08.124.09l.88.104c.15.02.22-.11.18-.223l-.895-2.255c.765-.207 1.35-.77 1.44-1.538.12-.994-.602-1.89-1.61-2.01l-2.396-.286c-.09-.01-.166.056-.178.14l-.66 5.52c-.01.083.046.166.14.177zm1.516-4.725l1.37.162c.448.05.79.466.736.908-.056.466-.487.803-.93.75l-1.367-.16.2-1.66zm7.13 6.137c1.65.344 3.25-.69 3.592-2.333.345-1.644-.7-3.243-2.35-3.586-1.654-.344-3.245.707-3.59 2.35-.345 1.646.695 3.226 2.347 3.57zm-1.27-3.335c.218-1.035 1.25-1.722 2.29-1.506 1.042.213 1.72 1.255 1.502 2.29-.217 1.037-1.254 1.705-2.296 1.49-1.04-.217-1.716-1.24-1.497-2.277zm8.174 5.11c1.275.387 2.555-.305 2.93-1.526l1.03-3.346c.024-.08-.027-.175-.108-.2l-.765-.233c-.09-.025-.18.027-.204.107l-1.013 3.294c-.2.676-.84 1.07-1.55.857-.7-.214-1-.895-.79-1.577l1.007-3.286c.025-.08-.018-.178-.107-.2l-.767-.238c-.08-.02-.175.03-.2.11l-1.026 3.34c-.374 1.223.3 2.508 1.568 2.893m4.465 1.39l.722.282c.08.03.176-.02.207-.098l.723-1.84.98.385c.96.376 2.066-.103 2.45-1.073.373-.946-.11-2.038-1.078-2.417l-1.847-.72c-.086-.034-.175.012-.21.09l-2.04 5.176c-.03.08.003.173.09.206zm2.652-4.17l.91.354c.44.18.68.65.51 1.08-.183.46-.69.67-1.13.5l-.912-.36.62-1.57zM45.33 84.76l-3.51-1.13c-.088-.026-.176.025-.202.104l-.212.656c-.026.08.015.172.103.2l1.23.396-1.45 4.483c-.025.08.024.17.105.2l.746.24c.08.02.177-.03.2-.11l1.46-4.49 1.23.395c.09.03.178-.023.205-.103l.213-.657c.024-.08-.017-.17-.105-.2m4.97 1.265l-2.35-.537c-.09-.02-.174.037-.193.12l-1.247 5.42c-.02.08.03.17.12.19l.757.17c.08.02.172-.04.192-.12l.48-2.088.91.207.595 2.42c.007.04.04.088.114.105l.86.196c.14.032.23-.086.196-.205l-.645-2.33c.78-.12 1.425-.62 1.598-1.373.224-.972-.4-1.94-1.386-2.166zm.315 1.94c-.106.46-.57.75-1.006.65l-1.34-.307.374-1.63 1.34.307c.436.1.73.546.632.98zm6.206-.9l-.083-.01c-.07-.01-.12.025-.15.072l-3.32 5.27c-.06.1-.01.22.117.234l.726.094c.135.02.22-.052.264-.13l.524-.85 2.5.32.295.95c.044.126.096.184.22.2l.73.09c.125.018.206-.08.17-.196l-1.855-5.93c-.02-.054-.05-.1-.135-.11zm-1.4 3.806l1.057-1.726.03.002.6 1.938-1.68-.21zm7.348-3.203l-.783-.04c-.08-.007-.16.065-.167.15l-.29 5.55c-.004.08.07.16.15.165l.783.04c.085 0 .164-.07.17-.15l.286-5.55c.004-.087-.067-.167-.15-.17m4.31 5.967c.094 0 .16-.08.157-.166l-.107-3.61h.01l3.638 3.75.205-.005c.09-.006.16-.075.16-.16l-.163-5.65c0-.084-.08-.157-.163-.154l-.777.024c-.093.002-.16.08-.155.163l.1 3.47h-.008l-3.62-3.61-.21.006c-.083 0-.157.07-.155.154l.164 5.65c.006.084.08.16.17.156l.77-.02m7.85-6.39l-.78.09c-.08.01-.15.09-.14.175l.625 5.52c.01.082.093.15.18.14l.78-.09c.08-.01.15-.09.14-.174l-.625-5.52c-.01-.082-.094-.15-.18-.14m7.93-1.34l-.762.15c-.09.016-.14.104-.126.185l.677 3.406-.01.003-4.167-2.964-.207.04c-.08.013-.142.094-.125.18l1.103 5.54c.016.082.105.142.19.126l.75-.15c.09-.02.143-.106.126-.19l-.703-3.54h.007l4.21 3.1.2-.04c.083-.02.144-.1.127-.18l-1.102-5.546c-.018-.08-.107-.14-.19-.124m7.33 4.14c1.166-.36 1.834-1.134 1.834-1.134.024-.034.04-.084.024-.148l-.64-2.058c-.028-.08-.114-.136-.194-.11l-1.547.476c-.09.027-.134.11-.107.2l.195.633c.02.08.11.124.194.097l.644-.2.21.68c-.14.113-.443.356-.894.495-1.015.313-2.074-.284-2.384-1.28-.31-1 .22-2.105 1.225-2.415.44-.135.92-.107 1.36.09.093.043.165.02.21-.064l.34-.675c.04-.08.004-.173-.08-.22-.69-.294-1.473-.362-2.2-.14-1.604.496-2.492 2.18-1.993 3.79.5 1.6 2.183 2.47 3.786 1.98" fill="#fff" fill-rule="evenodd"/></svg>