<?xml version="1.0" encoding="utf-8"?>
<!-- Generator: Adobe Illustrator 18.1.1, SVG Export Plug-In . SVG Version: 6.00 Build 0)  -->
<!DOCTYPE svg PUBLIC "-//W3C//DTD SVG 1.1//EN" "http://www.w3.org/Graphics/SVG/1.1/DTD/svg11.dtd">
<svg version="1.1" id="Layer_1" xmlns="http://www.w3.org/2000/svg" xmlns:xlink="http://www.w3.org/1999/xlink" x="0px" y="0px"
	 viewBox="0 0 137.6 62.2" enable-background="new 0 0 137.6 62.2" xml:space="preserve">
<g>
	<path fill="#FFFFFF" stroke="#BCBEC0" stroke-width="0.5" d="M132.5,53.7L132.5,53.7C132.5,53.7,132.5,53.7,132.5,53.7L132.5,53.7z
		 M84,22.4C84.1,22.4,84.1,22.4,84,22.4C84.1,22.4,84.1,22.4,84,22.4L84,22.4z"/>
	<g>
		<g>
			<path fill="#E6E7E8" d="M97.1,27.6c-0.9,1.4-1.2,5.8-0.9,8.7c0.1,1,0.3,1.8,0.5,2.2c0.3,0.7,0.9,1.1,1.6,1.1
				c0.4,0,0.7-0.1,8.7-2.6c0,0,3.6-1.1,3.6-1.1c0.9-0.2,1.5-1,1.6-2.1c0.1-1.1-0.5-2-1.4-2.4c0,0-2.5-1-2.5-1
				c-8.6-3.6-9-3.7-9.5-3.7C98.1,26.6,97.5,27,97.1,27.6z"/>
			<path fill="#E6E7E8" d="M116.4,54.2c0.1-0.4,0.2-0.7,0.2-9.1c0,0,0-3.7,0-3.8c0.1-0.9-0.5-1.7-1.5-2.1c-1-0.4-2.1-0.2-2.7,0.6
				c0,0-1.8,2.1-1.8,2.1c-6.1,7.1-6.3,7.4-6.5,7.9c-0.1,0.2-0.1,0.5-0.1,0.8c0,0.4,0.2,0.8,0.5,1.1c1.4,1.7,8.1,4.1,10.3,3.8
				C115.6,55.3,116.2,54.8,116.4,54.2z"/>
			<path fill="#E6E7E8" d="M130.1,51.3c2-0.8,6.5-6.4,6.8-8.6c0.1-0.8-0.1-1.4-0.7-1.8c-0.3-0.3-0.6-0.4-8.6-3c0,0-3.5-1.2-3.6-1.2
				c-0.9-0.3-1.8,0-2.5,0.8c-0.7,0.8-0.8,1.9-0.2,2.7l1.4,2.3c4.8,7.8,5.1,8.3,5.5,8.6C128.7,51.5,129.4,51.5,130.1,51.3L130.1,51.3
				z"/>
			<path fill="#E6E7E8" d="M125.9,31.3c9.1-2.2,9.5-2.3,9.9-2.6c0.6-0.4,0.8-1,0.8-1.8c0,0,0,0,0-0.1c-0.2-2.2-4.2-8.1-6.1-9
				c-0.7-0.3-1.4-0.3-1.9,0.1c-0.4,0.2-0.6,0.6-5.5,7.3c0,0-2.2,3-2.2,3c-0.6,0.7-0.6,1.7,0,2.6c0.6,0.9,1.6,1.3,2.5,1.1
				c0,0,0,0.1-0.1,0.1C123.6,31.9,124.5,31.7,125.9,31.3z"/>
			<path fill="#E6E7E8" d="M116.7,23.8L116.7,23.8c-0.2-3.6-1.2-19.7-1.4-20.5c-0.2-0.7-0.7-1.2-1.5-1.4c-2.3-0.6-11.2,1.9-12.9,3.6
				c-0.5,0.5-0.7,1.2-0.6,1.8c0.3,0.5,11.3,17.9,11.3,17.9c1.6,2.7,3,2.2,3.4,2.1C115.6,27.3,116.9,26.8,116.7,23.8z"/>
		</g>
	</g>
	<g>
		<g>
			<path fill="#B3282D" d="M97.8,25.8c-0.9,1.4-1.2,5.8-0.9,8.7c0.1,1,0.3,1.8,0.5,2.2c0.3,0.7,0.9,1.1,1.6,1.1
				c0.4,0,0.7-0.1,8.7-2.6c0,0,3.6-1.1,3.6-1.1c0.9-0.2,1.5-1,1.6-2.1c0.1-1.1-0.5-2-1.4-2.4c0,0-2.5-1-2.5-1
				c-8.6-3.6-9-3.7-9.5-3.7C98.8,24.8,98.2,25.2,97.8,25.8z"/>
			<path fill="#B3282D" d="M117.1,52.4c0.1-0.4,0.2-0.7,0.2-9.1c0,0,0-3.7,0-3.8c0.1-0.9-0.5-1.7-1.5-2.1c-1-0.4-2.1-0.1-2.7,0.6
				c0,0-1.8,2.1-1.8,2.1c-6.1,7.1-6.3,7.4-6.5,7.9c-0.1,0.3-0.1,0.5-0.1,0.8c0,0.4,0.2,0.7,0.5,1.1c1.4,1.7,8.1,4.1,10.3,3.8
				C116.4,53.4,116.9,53,117.1,52.4z"/>
			<path fill="#B3282D" d="M130.8,49.4c2-0.8,6.5-6.4,6.8-8.6c0.1-0.8-0.1-1.4-0.6-1.8c-0.3-0.3-0.6-0.4-8.6-3c0,0-3.5-1.2-3.6-1.2
				c-0.9-0.3-1.8,0-2.5,0.8c-0.7,0.8-0.8,1.9-0.2,2.7l1.4,2.3c4.8,7.8,5.1,8.3,5.5,8.6C129.4,49.6,130.1,49.7,130.8,49.4L130.8,49.4
				z"/>
			<path fill="#B3282D" d="M126.7,29.5c9.1-2.2,9.5-2.3,9.9-2.6c0.6-0.4,0.8-1,0.8-1.8c0,0,0,0,0-0.1c-0.2-2.2-4.2-8.1-6.1-9
				c-0.7-0.3-1.4-0.3-1.9,0.1c-0.4,0.2-0.6,0.6-5.5,7.3c0,0-2.2,3-2.2,3c-0.6,0.7-0.6,1.7,0,2.6c0.6,0.9,1.6,1.3,2.5,1.1
				c0,0,0,0.1,0,0.1C124.4,30,125.2,29.8,126.7,29.5z"/>
			<path fill="#B3282D" d="M117.5,21.9L117.5,21.9c-0.2-3.6-1.2-19.7-1.4-20.5c-0.2-0.7-0.7-1.2-1.5-1.4c-2.3-0.6-11.2,1.9-12.9,3.6
				c-0.5,0.6-0.7,1.2-0.6,1.8c0.3,0.5,11.3,17.9,11.3,17.9c1.6,2.6,3,2.2,3.4,2.1C116.3,25.4,117.6,25,117.5,21.9z"/>
		</g>
	</g>
	<g>
		<g>
			<path d="M4.3,60.2c1.2,1.1,3.3,1.4,6,0.8c2.5-0.5,4-1.6,5.5-6.3l7.4-23.2c0.4-1.2,0.4-2.3-0.1-3.1c-0.4-0.6-0.9-1.1-1.8-1.3
				c-1.3-0.4-3-0.3-4,3.2l-3.9,13.2c0,0-7.9-14.9-7.9-14.9c-0.5-1-2-1.7-3.4-1.1c-1.9,0.7-2.6,2.5-1.8,4.7c0,0,9.6,19.5,9.6,19.6
				c0,0,0.3,0.7,0.3,0.8c0,0,0.1,0.5,0.1,0.5c0,0.8-0.3,1.4-0.7,1.8c-0.4,0.4-1.1,0.6-1.8,0.6c0,0-1.5,0-1.6,0
				c-1.5,0.2-2.5,1.1-2.7,2.4C3.4,58.8,3.7,59.6,4.3,60.2z"/>
			<path d="M48.5,36.4c-0.3-3.3-1.6-6-3.7-7.6c-2.3-1.7-5.5-2.3-9.2-1.6c-4.7,0.8-7.6,4.2-8.2,9.8c-0.8,6.7,0.3,11.7,3.2,14.6
				c2.2,2.2,5.4,3,9.4,2.5c5.6-0.8,8.1-3.9,8.1-5.8c0-1.4-0.9-2.6-2.1-2.7c-0.7-0.1-1.3,0-2.7,1.2c-2,1.7-4.2,2.4-6.2,1.9
				c-1.5-0.4-2.7-1.4-3.3-2.9c0,0-0.2-1-0.2-0.9c-0.2-0.9-0.2-1.7,0.3-2.1l0.1-0.1h12.3c1.1,0,1.7-0.1,2-0.5
				C48.8,41.5,48.7,39.4,48.5,36.4z M42.1,38.2H31.9c-0.3-0.2-0.4-0.5-0.2-1.6c0.1-0.5,0.3-1,0.7-1.7c0.1-0.2,0.3-0.4,0.4-0.6
				c0.8-1,1.8-1.6,2.9-1.8c3.6-0.9,6.1,0.9,6.5,4.1C42.4,37.9,42.3,38.2,42.1,38.2z"/>
			<path d="M59.6,18.7c-1-0.4-2.1-0.3-3,0.3c-0.9,0.5-1.3,1.4-1.3,2.9v29.4c0,0,0.2,1,0.2,1.1c0.2,0.7,0.8,1.4,1.5,1.7
				c0.8,0.4,1.8,0.4,2.7,0c1.1-0.5,1.7-1.5,1.7-2.9V21.7c0,0-0.2-1.4-0.2-1.4C60.9,19.6,60.4,19,59.6,18.7z"/>
			<path d="M83.2,26.9c-2.7-0.6-5.1-0.1-7.3,1.4c0,0-0.3,0.2-0.3,0.3l-0.2,0.1L74.7,29l-0.2-0.7l-0.1-0.2l-0.1-0.2l0,0
				c0,0-0.1-0.2-0.2-0.2c-0.6-1-2.4-1.5-4-0.6C69.4,27.5,69,28.1,69,30v28.8c0,1.6,0.5,2.6,1.6,3.1c0.9,0.5,1.9,0.5,2.8,0.1
				c0.8-0.3,1.3-0.9,1.5-1.6l0.2-1.2v-5l0-0.8l0-0.2l0-0.1l0.3-0.9l0.9,0.6c0,0,0.2,0.1,0.3,0.3l0.3,0.2c0,0,0.3,0.2,0.3,0.2
				c0,0,0.3,0.1,0.3,0.1c2.4,1.1,5.7,1,8.3-0.3c3.3-1.7,4.9-4.7,5.3-9.8C91.8,33,89.4,28.1,83.2,26.9z M82.9,48.5
				c-4.1,0-4.7-3.6-4.8-6.3c0,0-0.1-1.6-0.1-1.6s0-1.2,0-1.2c0.3-4.7,1.2-6.6,3.7-7.1c1.7-0.4,2.9-0.2,3.9,0.6
				c1.4,1.2,2.1,3.6,2,7.7C87.6,45.3,86.8,48.5,82.9,48.5z"/>
		</g>
	</g>
	<g>
		<path d="M96.2,49.1c0.9,0,1.7,0.7,1.7,1.7c0,1-0.8,1.7-1.7,1.7c-0.9,0-1.7-0.7-1.7-1.7C94.4,49.9,95.2,49.1,96.2,49.1z M96.2,52.3
			c0.8,0,1.4-0.6,1.4-1.5c0-0.8-0.6-1.4-1.4-1.4c-0.8,0-1.4,0.6-1.4,1.5C94.7,51.7,95.4,52.3,96.2,52.3z M95.5,49.9h0.7
			c0.5,0,0.7,0.2,0.7,0.6c0,0.3-0.2,0.5-0.5,0.5l0.6,0.9h-0.3L96.1,51h-0.4v0.8h-0.3V49.9z M95.8,50.7h0.3c0.3,0,0.5,0,0.5-0.3
			c0-0.3-0.2-0.3-0.4-0.3h-0.4V50.7z"/>
	</g>
</g>
</svg>
