<?xml version="1.0" encoding="UTF-8" standalone="no"?>
<svg width="21px" height="66px" viewBox="0 0 21 66" version="1.1" xmlns="http://www.w3.org/2000/svg" xmlns:xlink="http://www.w3.org/1999/xlink" xmlns:sketch="http://www.bohemiancoding.com/sketch/ns">
    <!-- Generator: Sketch 3.2.2 (9983) - http://www.bohemiancoding.com/sketch -->
    <title>Imported Layers</title>
    <desc>Created with Sketch.</desc>
    <defs>
        <path id="path-1" d="M1.06770349,0.13442668 L39.907936,0.13442668 L39.907936,13.8759795 L1.06770349,13.8759795"></path>
        <path id="path-3" d="M1.06770349,41.7780959 L39.907936,41.7780959 L39.907936,0.41901082 L1.06770349,0.41901082"></path>
        <path id="path-5" d="M1.06770349,41.7780959 L39.907936,41.7780959 L39.907936,0.41901082 L1.06770349,0.41901082"></path>
        <path id="path-7" d="M1.06770349,0 L39.907936,0 L39.907936,13.462689 L1.06770349,13.462689"></path>
        <path id="path-9" d="M1.06770349,0 L39.907936,0 L39.907936,13.462689 L1.06770349,13.462689"></path>
    </defs>
    <g id="Page-1" stroke="none" stroke-width="1" fill="none" fill-rule="evenodd" sketch:type="MSPage">
        <g id="Imported-Layers" sketch:type="MSLayerGroup" transform="translate(-787.000000, -1.000000)">
            <path d="M792.415953,66.8858535 C793.489029,66.8858535 794.359308,65.9605975 794.359308,64.8179708 C794.359308,63.6739139 793.489029,62.7486579 792.415953,62.7486579 C791.342878,62.7486579 790.475285,63.6739139 790.475285,64.8179708 C790.475285,65.9605975 791.342878,66.8858535 792.415953,66.8858535" id="Fill-145" fill="#1A1918" sketch:type="MSShapeGroup"></path>
            <g id="Group-151" transform="translate(781.639535, 54.342700)">
                <mask id="mask-2" sketch:name="Clip 147" fill="white">
                    <use xlink:href="#path-1"></use>
                </mask>
                <g id="Clip-147"></g>
                <path d="M20.4878198,2.20230943 C21.5595523,2.20230943 22.4298314,1.27562339 22.4298314,0.13442668 C22.4298314,-1.00677003 21.5595523,-1.932026 20.4878198,-1.932026 C19.4134012,-1.932026 18.5458081,-1.00677003 18.5458081,0.13442668 C18.5458081,1.27562339 19.4134012,2.20230943 20.4878198,2.20230943" id="Fill-149" fill="#1A1918" sketch:type="MSShapeGroup" mask="url(#mask-2)"></path>
            </g>
            <g id="Group-564" transform="translate(781.639535, 12.870640)">
                <mask id="mask-4" sketch:name="Clip 561" fill="white">
                    <use xlink:href="#path-3"></use>
                </mask>
                <g id="Clip-561"></g>
                <path d="M20.4878198,43.8459787 C21.5595523,43.8459787 22.4298314,42.9207227 22.4298314,41.7780959 C22.4298314,40.6368992 21.5595523,39.7116432 20.4878198,39.7116432 C19.4134012,39.7116432 18.5458081,40.6368992 18.5458081,41.7780959 C18.5458081,42.9207227 19.4134012,43.8459787 20.4878198,43.8459787" id="Fill-562" fill="#1A1918" sketch:type="MSShapeGroup" mask="url(#mask-4)"></path>
            </g>
            <path d="M802.127355,36.0392208 C803.199087,36.0392208 804.069366,35.1111047 804.069366,33.9699079 C804.069366,32.8287112 803.199087,31.9020252 802.127355,31.9020252 C801.052936,31.9020252 800.185343,32.8287112 800.185343,33.9699079 C800.185343,35.1111047 801.052936,36.0392208 802.127355,36.0392208" id="Fill-565" fill="#1A1918" sketch:type="MSShapeGroup"></path>
            <path d="M792.415953,46.3786345 C793.489029,46.3786345 794.359308,45.4519485 794.359308,44.3107518 C794.359308,43.1666949 793.489029,42.241439 792.415953,42.241439 C791.342878,42.241439 790.475285,43.1666949 790.475285,44.3107518 C790.475285,45.4519485 791.342878,46.3786345 792.415953,46.3786345" id="Fill-566" fill="#1A1918" sketch:type="MSShapeGroup"></path>
            <path d="M792.415953,25.6983769 C793.489029,25.6983769 794.359308,24.773121 794.359308,23.6319243 C794.359308,22.4878674 793.489029,21.5611814 792.415953,21.5611814 C791.342878,21.5611814 790.475285,22.4878674 790.475285,23.6319243 C790.475285,24.773121 791.342878,25.6983769 792.415953,25.6983769" id="Fill-568" fill="#1A1918" sketch:type="MSShapeGroup"></path>
            <g id="Group-576" transform="translate(781.639535, 12.870640)">
                <mask id="mask-6" sketch:name="Clip 570" fill="white">
                    <use xlink:href="#path-5"></use>
                </mask>
                <g id="Clip-570"></g>
                <path d="M20.4878198,2.48689357 C21.5595523,2.48689357 22.4298314,1.5616376 22.4298314,0.420440891 C22.4298314,-0.722185885 21.5595523,-1.64744186 20.4878198,-1.64744186 C19.4134012,-1.64744186 18.5458081,-0.722185885 18.5458081,0.420440891 C18.5458081,1.5616376 19.4134012,2.48689357 20.4878198,2.48689357" id="Fill-574" fill="#1A1918" sketch:type="MSShapeGroup" mask="url(#mask-6)"></path>
            </g>
            <g id="Group-912" transform="translate(781.639535, 0.000000)">
                <mask id="mask-8" sketch:name="Clip 910" fill="white">
                    <use xlink:href="#path-7"></use>
                </mask>
                <g id="Clip-910"></g>
                <path d="M20.4878198,15.5291416 C21.5595523,15.5291416 22.4298314,14.6038857 22.4298314,13.462689 C22.4298314,12.3200622 21.5595523,11.3948062 20.4878198,11.3948062 C19.4134012,11.3948062 18.5458081,12.3200622 18.5458081,13.462689 C18.5458081,14.6038857 19.4134012,15.5291416 20.4878198,15.5291416" id="Fill-911" fill="#1A1918" sketch:type="MSShapeGroup" mask="url(#mask-8)"></path>
            </g>
            <path d="M792.415953,5.19115795 C793.489029,5.19115795 794.359308,4.26590197 794.359308,3.12327519 C794.359308,1.97921835 793.489029,1.05396237 792.415953,1.05396237 C791.342878,1.05396237 790.475285,1.97921835 790.475285,3.12327519 C790.475285,4.26590197 791.342878,5.19115795 792.415953,5.19115795" id="Fill-913" fill="#1A1918" sketch:type="MSShapeGroup"></path>
            <g id="Group-917" transform="translate(781.639535, 0.000000)">
                <mask id="mask-10" sketch:name="Clip 915" fill="white">
                    <use xlink:href="#path-9"></use>
                </mask>
                <g id="Clip-915"></g>
            </g>
        </g>
    </g>
</svg>